<!-- icon666.com - MILLIONS vector ICONS FREE --><svg fill="none" viewBox="0 0 100 100" xmlns="http://www.w3.org/2000/svg"><g fill="rgb(0,0,0)"><path d="m49.9998 15.5615c.8284 0 1.5.6716 1.5 1.5v9.0388c0 .8285-.6716 1.5-1.5 1.5-.8285 0-1.5-.6715-1.5-1.5v-9.0388c0-.8284.6715-1.5 1.5-1.5z" fill="rgb(0,0,0)" style="fill: rgb(234, 213, 108);"></path><path clip-rule="evenodd" d="m49.9996 70.5878c11.0985 0 20.0955-8.9971 20.0955-20.0955 0-11.0985-8.997-20.0956-20.0955-20.0956s-20.0955 8.9971-20.0955 20.0956c0 11.0984 8.997 20.0955 20.0955 20.0955zm0-3c9.4416 0 17.0955-7.6539 17.0955-17.0955s-7.6539-17.0956-17.0955-17.0956-17.0955 7.654-17.0955 17.0956 7.6539 17.0955 17.0955 17.0955z" fill-rule="evenodd" fill="rgb(0,0,0)" style="fill: rgb(234, 213, 108);"></path><path d="m51.4998 73.8994c0-.8284-.6716-1.5-1.5-1.5-.8285 0-1.5.6716-1.5 1.5v9.0388c0 .8285.6715 1.5 1.5 1.5.8284 0 1.5-.6715 1.5-1.5z" fill="rgb(0,0,0)" style="fill: rgb(234, 213, 108);"></path><path d="m84.4382 50c0 .8284-.6715 1.5-1.5 1.5h-9.0388c-.8284 0-1.5-.6716-1.5-1.5s.6716-1.5 1.5-1.5h9.0388c.8285 0 1.5.6716 1.5 1.5z" fill="rgb(0,0,0)" style="fill: rgb(234, 213, 108);"></path><path d="m26.1003 51.5c.8285 0 1.5-.6716 1.5-1.5s-.6715-1.5-1.5-1.5h-9.0388c-.8284 0-1.5.6716-1.5 1.5s.6716 1.5 1.5 1.5z" fill="rgb(0,0,0)" style="fill: rgb(234, 213, 108);"></path><path d="m74.3514 74.3517c-.5858.5858-1.5355.5858-2.1213 0l-6.3914-6.3914c-.5858-.5858-.5858-1.5356 0-2.1214.5858-.5857 1.5355-.5857 2.1213 0l6.3914 6.3915c.5858.5857.5858 1.5355 0 2.1213z" fill="rgb(0,0,0)" style="fill: rgb(234, 213, 108);"></path><path d="m32.0397 34.1612c.5858.5858 1.5355.5858 2.1213 0 .5858-.5857.5858-1.5355 0-2.1213l-6.3914-6.3914c-.5858-.5858-1.5355-.5858-2.1213 0s-.5858 1.5355 0 2.1213z" fill="rgb(0,0,0)" style="fill: rgb(234, 213, 108);"></path><path d="m25.6481 74.3517c-.5858-.5858-.5858-1.5356 0-2.1213l6.3914-6.3915c.5858-.5857 1.5355-.5857 2.1213 0 .5858.5858.5858 1.5356 0 2.1214l-6.3914 6.3914c-.5858.5858-1.5355.5858-2.1213 0z" fill="rgb(0,0,0)" style="fill: rgb(234, 213, 108);"></path><path d="m65.8385 32.0399c-.5858.5858-.5858 1.5356 0 2.1213.5858.5858 1.5355.5858 2.1213 0l6.3914-6.3914c.5858-.5857.5858-1.5355 0-2.1213-.5857-.5858-1.5355-.5858-2.1213 0z" fill="rgb(0,0,0)" style="fill: rgb(234, 213, 108);"></path></g></svg>