<!-- icon666.com - MILLIONS vector ICONS FREE --><svg version="1.1" id="Capa_1" xmlns="http://www.w3.org/2000/svg" xmlns:xlink="http://www.w3.org/1999/xlink" x="0px" y="0px" viewBox="0 0 512 512" style="enable-background:new 0 0 512 512;" xml:space="preserve"><g><g><g><path d="M32,192h320v32h32v-80c-0.048-38.002-26.777-70.745-64-78.4V0H64v65.6C26.777,73.255,0.048,105.998,0,144v288 c0.053,44.161,35.839,79.947,80,80h176v-32H80c-26.51,0-48-21.49-48-48v-16h224v-32H32V192z M96,32h192v32H96V32z M32,144 c0-26.51,21.49-48,48-48h224c26.51,0,48,21.49,48,48v16H32V144z" fill="#000000" style="fill: rgb(12, 127, 176);"></path><path d="M288,256v208c0,26.51,21.49,48,48,48h128c26.51,0,48-21.49,48-48V256H288z M480,464c0,8.837-7.163,16-16,16H336 c-8.837,0-16-7.163-16-16v-80h160V464z M480,352H320v-64h160V352z" fill="#000000" style="fill: rgb(12, 127, 176);"></path><polygon points="224,272 96,272 96,240 64,240 64,336 96,336 96,304 224,304 224,336 256,336 256,240 224,240 " fill="#000000" style="fill: rgb(12, 127, 176);"></polygon><rect x="352" y="416" width="32" height="32" fill="#000000" style="fill: rgb(12, 127, 176);"></rect><rect x="416" y="416" width="32" height="32" fill="#000000" style="fill: rgb(12, 127, 176);"></rect></g></g></g></svg>